<?xml version="1.0"?>
<svg width="700" height="800" xmlns="http://www.w3.org/2000/svg" xmlns:svg="http://www.w3.org/2000/svg">
 <g stroke="null">
  <title>Layer 1</title>
  <rect stroke="#ffffff" transform="rotate(35.320213317871094 353.24911499023415,394.37527465820324) " id="svg_4" height="674.154327" width="102.266409" y="57.298134" x="302.115788" stroke-width="0" fill="#FF0000"/>
  <g stroke="null" id="g3033" transform="matrix(2.2390203140205367,-1.0986374754445385,2.2419363206216456,1.0901409410837362,-2244.3039167418037,151.12314742214915) ">
   <path stroke="#ffffff" d="m270.821163,775.734977c7.38381,7.3838 14.76763,14.7676 22.15144,22.1514l250.36453,-250.36448l17.58815,17.56522l35.38269,-92.68749l-92.6875,35.38268l17.56522,17.58815l-250.36453,250.36452z" id="path3036" fill="#ff1414" stroke-width="0"/>
  </g>
  <g stroke="null" id="g3038" transform="matrix(2.2390203140205367,-1.1231689435479786,2.2419363206216456,1.114482690133967,-1926.753654574244,686.4393989054586) ">
   <path stroke="#ffffff" d="m829.000131,301.087245c-7.38381,-7.38381 -14.76763,-14.76763 -22.15144,-22.15144l-250.36453,250.36453l-17.58815,-17.56522l-35.38268,92.6875l92.68749,-35.38269l-17.56522,-17.58815l250.36453,-250.36453z" id="path3040" fill="#ff1414" stroke-width="0"/>
  </g>
  <g stroke="null" id="g3016" transform="matrix(-3.213068387025045,0,0,1.4895251694198948,1051.0171811941282,-215.08880891997774) "/>
  <g id="svg_10"/>
 </g>
</svg>